<?xml version="1.0" encoding="utf-8"?>
<!-- Generator: Adobe Illustrator 21.0.2, SVG Export Plug-In . SVG Version: 6.00 Build 0)  -->
<svg version="1.1" id="Layer_1" xmlns="http://www.w3.org/2000/svg" xmlns:xlink="http://www.w3.org/1999/xlink" x="0px" y="0px"
	 viewBox="0 0 18 18" style="enable-background:new 0 0 18 18;" xml:space="preserve">
<path d="M8.6,14.5C8.6,14.5,8.6,14.5,8.6,14.5c1.1-2.8,2.1-5.5,3.2-8.2c0.1-0.2,0.2-0.5,0.3-0.7c0,0,0,0,0.1,0c0.6,0,1.2,0,1.9,0
	c0,0,0.1,0,0.1,0c1.1,3,2.2,5.9,3.3,8.9c0,0,0,0,0,0.1c-0.5,0-0.9,0-1.4,0c0,0,0,0,0,0c-0.3-0.8-0.7-1.6-1-2.4c0,0,0-0.1-0.1-0.1
	c-1.3,0-2.5,0-3.8,0c0,0-0.1,0-0.1,0c-0.2,0.5-0.4,1.1-0.6,1.6c-0.1,0.3-0.2,0.5-0.3,0.8C9.6,14.5,9.1,14.5,8.6,14.5z M14.6,10.9
	C14,9.4,13.5,8,12.9,6.6c-0.6,1.4-1.1,2.8-1.7,4.3C12.4,10.9,13.5,10.9,14.6,10.9z"/>
<path d="M0.7,5.6c3.3,0,6.5,0,9.8,0c0,0,0,0.1-0.1,0.1c-0.1,0.3-0.2,0.6-0.3,0.9c0,0,0,0-0.1,0c-0.5,0-1,0-1.5,0c0,0,0,0-0.1,0
	C8.1,7.8,7.4,8.9,6.3,9.8c0.7,0.4,1.4,0.8,2.2,1c-0.1,0.3-0.3,0.7-0.4,1c-1-0.3-1.9-0.7-2.8-1.2c-1,0.7-2,1.2-3.2,1.5
	c-0.4,0.1-0.8,0.2-1.1,0.3c-0.1-0.4-0.3-0.7-0.4-1c0.2-0.1,0.3-0.1,0.5-0.2c0.7-0.2,1.3-0.4,2-0.7c0.4-0.2,0.9-0.4,1.3-0.7
	c0,0,0,0,0.1,0C4.3,9.7,4.2,9.6,4.1,9.5C3.3,8.6,2.6,7.7,2.2,6.6c0,0,0,0-0.1,0c-0.5,0-0.9,0-1.4,0c0,0,0,0-0.1,0
	C0.7,6.2,0.7,5.9,0.7,5.6z M7.3,6.6c-1.2,0-2.5,0-3.7,0c0.3,1,1,1.8,1.8,2.5C6.2,8.4,6.9,7.6,7.3,6.6z"/>
<path d="M6.2,4.9c-0.3,0-0.7,0-1,0c-0.4-0.1-0.8-0.3-1-0.6C4.2,4,4,3.7,3.9,3.5c0,0,0,0,0,0c0,0,0,0,0,0c0.5,0,1,0,1.5,0
	c0,0,0.1,0,0.1,0C5.7,4,6,4.4,6.2,4.9C6.2,4.8,6.2,4.8,6.2,4.9z"/>
</svg>
