<?xml version="1.0" encoding="utf-8"?>
<!-- Generator: Adobe Illustrator 21.0.2, SVG Export Plug-In . SVG Version: 6.00 Build 0)  -->
<svg version="1.1" id="Layer_1" xmlns="http://www.w3.org/2000/svg" xmlns:xlink="http://www.w3.org/1999/xlink" x="0px" y="0px"
	 viewBox="0 0 18 18" style="enable-background:new 0 0 18 18;" xml:space="preserve">
<style type="text/css">
	.st0{fill:#1467E7;}
</style>
<path class="st0" d="M10.5,2.1C7,1.5,3.6,3.9,2.9,7.5C2.6,9.1,3,10.7,3.8,12c0,0-0.1,0-0.1,0S2,14.6,2.1,14.7
	c0.2,0.2,2.2-0.5,3.3-0.9c0.8,0.6,1.7,1,2.7,1.2c3.5,0.7,7.1-1.5,7.8-5.3C16.5,6.2,14.1,2.8,10.5,2.1z M14.3,11.4
	c-1.7,3.1-6.2,3.3-8.8,1.3c-1.1,0.3-2,0.9-2,0.9l1.3-1.6c0-0.1,0-0.7,0-0.8c0.4-0.6,0.7-1.2,1.4-1.6c0.2-0.1,0.2-0.2,0-0.4
	c0,0,0-0.1-0.1-0.1C5.5,9,5,8.5,4.5,8C4.4,7.8,4.3,7.9,4.2,8C4,8.3,3.9,8.6,3.8,8.9c-0.2-1.1,0.4-3,1.5-4C5.2,5.1,5.1,5.3,5.1,5.5
	c0,0.3,0.1,0.4,0.4,0.4c0.5-0.1,0.9-0.2,1.2-0.7C6.7,5,6.8,4.9,7,4.7c0,0.4,0,0.7,0,1C7,5.9,7,6,7,6.1c0.1,0.1,0.2,0.2,0.3,0.2
	c0.1,0,0.2-0.1,0.2-0.2C7.7,5.7,7.8,5.4,8,5c0.1-0.3,0.3-0.4,0.6-0.3c0.2,0,0.4,0,0.6,0.1c0.4,0.1,0.6,0.3,0.6,0.7
	c0,0.1,0,0.3,0,0.4c0,0.2-0.1,0.4-0.4,0.3c-0.5-0.1-1,0.3-1,0.8c0,0.2,0.1,0.4,0.3,0.5C9,7.7,9.3,7.8,9.6,8c0.8,0.4,1.1,1,1.1,1.9
	c0,0.5-0.1,0.9-0.1,1.4c0,0.3-0.1,0.7,0,1c0,0.3,0.2,0.4,0.5,0.2c0.9-0.7,1.6-1.5,2-2.5c0.1-0.3,0.1-0.7,0-1c0-0.3,0.1-0.5,0.4-0.6
	c0.7-0.2,1.3-0.6,1.3-1.5C15.3,8.5,15.1,10,14.3,11.4z"/>
</svg>
