<?xml version="1.0" encoding="utf-8"?>
<!-- Generator: Adobe Illustrator 21.0.2, SVG Export Plug-In . SVG Version: 6.00 Build 0)  -->
<svg version="1.1" id="Layer_1" xmlns="http://www.w3.org/2000/svg" xmlns:xlink="http://www.w3.org/1999/xlink" x="0px" y="0px"
	 viewBox="0 0 18 18" style="enable-background:new 0 0 18 18;" xml:space="preserve">
<style type="text/css">
	.st0{fill:#6397FF;}
</style>
<path class="st0" d="M10.8,0.8C6.4,0,2.1,3,1.2,7.6c-0.4,2,0.1,4.1,1.1,5.7c-0.1,0-0.1,0-0.1,0s-2.2,3.3-2,3.4
	C0.5,17,3,16.1,4.4,15.6c1,0.8,2.1,1.3,3.4,1.6c4.4,0.9,9-1.9,9.9-6.7C18.5,6,15.4,1.6,10.8,0.8z M15.6,12.6
	c-2.2,3.9-7.8,4.2-11.1,1.7C3.1,14.7,2,15.4,2,15.4l1.6-2c0-0.1,0-0.8,0.1-1c0.5-0.8,0.9-1.6,1.7-2c0.3-0.1,0.2-0.3,0-0.5L5.3,9.8
	c-0.8-0.4-1.4-1.1-2-1.7C3.1,8,2.9,8.1,2.8,8.3C2.7,8.6,2.5,9,2.4,9.3C2.1,8,2.8,5.5,4.2,4.2C4.1,4.5,4,4.8,4,5
	C3.9,5.4,4.1,5.5,4.5,5.5C5.1,5.4,5.6,5.2,6,4.7c0-0.2,0.2-0.4,0.4-0.6c0,0.5,0,0.9,0,1.3c0,0.1,0,0.3,0.1,0.4s0.2,0.3,0.3,0.3
	c0.1,0,0.2-0.2,0.3-0.3c0.2-0.4,0.4-0.9,0.6-1.3C7.8,4.1,8.1,4,8.4,4c0.3,0,0.5,0,0.8,0.1C9.7,4.2,9.9,4.5,9.9,5c0,0.2,0,0.3,0,0.5
	c0,0.3-0.1,0.5-0.5,0.4c-0.6-0.1-1.2,0.4-1.3,1c0,0.3,0.1,0.5,0.4,0.7C8.9,7.8,9.3,8,9.7,8.2c1,0.5,1.5,1.3,1.4,2.4
	c0,0.6-0.1,1.2-0.2,1.8c0,0.4-0.1,0.9,0,1.3c0,0.4,0.3,0.5,0.6,0.3c1.1-0.8,2-1.8,2.5-3.2c0.1-0.4,0.1-0.8,0-1.3
	c0-0.5,0.2-0.7,0.6-0.9c0.9-0.3,1.7-0.7,1.6-1.9C16.9,8.8,16.7,10.7,15.6,12.6z"/>
</svg>
